<svg width="17" height="16" viewBox="0 0 17 16" fill="none" xmlns="http://www.w3.org/2000/svg">
<path d="M11.8344 6.1133C11.7095 5.98913 11.5406 5.91943 11.3644 5.91943C11.1883 5.91943 11.0193 5.98913 10.8944 6.1133L8.5011 8.4733L6.1411 6.1133C6.0162 5.98913 5.84723 5.91943 5.67111 5.91943C5.49498 5.91943 5.32601 5.98913 5.20111 6.1133C5.13862 6.17527 5.08902 6.249 5.05518 6.33024C5.02133 6.41148 5.00391 6.49862 5.00391 6.58663C5.00391 6.67464 5.02133 6.76177 5.05518 6.84301C5.08902 6.92425 5.13862 6.99799 5.20111 7.05996L8.02777 9.88663C8.08975 9.94911 8.16348 9.99871 8.24472 10.0326C8.32596 10.0664 8.4131 10.0838 8.5011 10.0838C8.58911 10.0838 8.67625 10.0664 8.75749 10.0326C8.83873 9.99871 8.91246 9.94911 8.97444 9.88663L11.8344 7.05996C11.8969 6.99799 11.9465 6.92425 11.9804 6.84301C12.0142 6.76177 12.0316 6.67464 12.0316 6.58663C12.0316 6.49862 12.0142 6.41148 11.9804 6.33024C11.9465 6.249 11.8969 6.17527 11.8344 6.1133Z" fill="#111212"/>
</svg>
