<svg width="16" height="16" viewBox="0 0 16 16" fill="none" xmlns="http://www.w3.org/2000/svg">
<path d="M0.666016 0.666748H3.33268L5.11935 9.59342C5.18031 9.90035 5.34729 10.1761 5.59105 10.3723C5.8348 10.5685 6.13981 10.6727 6.45268 10.6667H12.9327C13.2456 10.6727 13.5506 10.5685 13.7943 10.3723C14.0381 10.1761 14.2051 9.90035 14.266 9.59342L15.3327 4.00008H3.99935M13.9993 14.0001C13.9993 14.3683 13.7009 14.6667 13.3327 14.6667C12.9645 14.6667 12.666 14.3683 12.666 14.0001C12.666 13.6319 12.9645 13.3334 13.3327 13.3334C13.7009 13.3334 13.9993 13.6319 13.9993 14.0001ZM6.66602 14.0001C6.66602 14.3683 6.36754 14.6667 5.99935 14.6667C5.63116 14.6667 5.33268 14.3683 5.33268 14.0001C5.33268 13.6319 5.63116 13.3334 5.99935 13.3334C6.36754 13.3334 6.66602 13.6319 6.66602 14.0001Z" stroke="#111212" stroke-width="1.33333" stroke-linecap="round" stroke-linejoin="round"/>
</svg>
