<svg width="14" height="14" viewBox="0 0 14 14" fill="none" xmlns="http://www.w3.org/2000/svg">
<path d="M11.9591 7.66674C11.8124 7.66674 11.6591 7.62007 11.5124 7.58674C11.2154 7.52129 10.9235 7.4344 10.6391 7.32674C10.3298 7.21423 9.98986 7.22007 9.68463 7.34315C9.3794 7.46622 9.13048 7.69783 8.98576 7.99341L8.83909 8.29341C8.18976 7.93219 7.59308 7.48356 7.06576 6.96007C6.54227 6.43275 6.09364 5.83607 5.73242 5.18674L6.01242 5.00007C6.308 4.85535 6.53961 4.60643 6.66269 4.3012C6.78576 3.99598 6.7916 3.65602 6.67909 3.34674C6.57324 3.06169 6.48638 2.76994 6.41909 2.47341C6.38576 2.32674 6.35909 2.17341 6.33909 2.02007C6.25813 1.55049 6.01217 1.12524 5.6455 0.820901C5.27884 0.516566 4.81555 0.353147 4.33909 0.360075H2.33909C2.05178 0.357377 1.76726 0.416617 1.5049 0.533762C1.24254 0.650906 1.0085 0.823205 0.818711 1.03893C0.628924 1.25465 0.487847 1.50874 0.405083 1.78388C0.322318 2.05903 0.29981 2.34878 0.339091 2.63341C0.694249 5.42633 1.96978 8.02133 3.96419 10.0085C5.95861 11.9957 8.55823 13.2617 11.3524 13.6067H11.6058C12.0974 13.6075 12.572 13.4271 12.9391 13.1001C13.15 12.9114 13.3185 12.6802 13.4334 12.4216C13.5483 12.163 13.6071 11.883 13.6058 11.6001V9.60007C13.5976 9.137 13.429 8.69111 13.1286 8.33852C12.8283 7.98593 12.415 7.74849 11.9591 7.66674ZM12.2924 11.6667C12.2923 11.7614 12.272 11.8549 12.2329 11.9412C12.1939 12.0274 12.1369 12.1043 12.0658 12.1667C11.9913 12.2311 11.9042 12.2791 11.81 12.3078C11.7159 12.3365 11.6168 12.3452 11.5191 12.3334C9.02236 12.0133 6.70325 10.8711 4.92757 9.08693C3.15189 7.3028 2.0207 4.9783 1.71242 2.48007C1.70181 2.38242 1.71111 2.28363 1.73976 2.18967C1.7684 2.09571 1.8158 2.00853 1.87909 1.93341C1.94156 1.8623 2.01846 1.8053 2.10468 1.76622C2.19089 1.72714 2.28443 1.70686 2.37909 1.70674H4.37909C4.53412 1.70329 4.68551 1.75399 4.80719 1.85012C4.92887 1.94625 5.01323 2.08179 5.04576 2.23341C5.07242 2.41563 5.10576 2.59563 5.14576 2.77341C5.22277 3.12484 5.32526 3.47019 5.45242 3.80674L4.51909 4.24007C4.43929 4.27669 4.36751 4.32871 4.30786 4.39314C4.24822 4.45757 4.20189 4.53315 4.17154 4.61554C4.14118 4.69792 4.1274 4.7855 4.13099 4.87322C4.13457 4.96095 4.15545 5.0471 4.19242 5.12674C5.15189 7.18191 6.80392 8.83394 8.85909 9.79341C9.0214 9.86009 9.20345 9.86009 9.36576 9.79341C9.4489 9.76367 9.5253 9.71771 9.59054 9.6582C9.65577 9.59869 9.70853 9.52681 9.74576 9.44674L10.1591 8.51341C10.5037 8.63666 10.8555 8.73907 11.2124 8.82007C11.3902 8.86007 11.5702 8.89341 11.7524 8.92007C11.904 8.9526 12.0396 9.03696 12.1357 9.15864C12.2318 9.28033 12.2825 9.43171 12.2791 9.58674L12.2924 11.6667Z" fill="#111212"/>
</svg>
