<svg width="16" height="16" viewBox="0 0 16 16" fill="none" xmlns="http://www.w3.org/2000/svg">
<path d="M12.9591 8.66674C12.8124 8.66674 12.6591 8.62007 12.5124 8.58674C12.2154 8.52129 11.9235 8.4344 11.6391 8.32674C11.3298 8.21423 10.9899 8.22007 10.6846 8.34315C10.3794 8.46622 10.1305 8.69783 9.98576 8.99341L9.83909 9.29341C9.18976 8.93219 8.59308 8.48356 8.06576 7.96007C7.54227 7.43275 7.09364 6.83607 6.73242 6.18674L7.01242 6.00007C7.308 5.85535 7.53961 5.60643 7.66269 5.3012C7.78576 4.99598 7.7916 4.65602 7.67909 4.34674C7.57324 4.06169 7.48638 3.76994 7.41909 3.47341C7.38576 3.32674 7.35909 3.17341 7.33909 3.02007C7.25813 2.55049 7.01217 2.12524 6.6455 1.8209C6.27884 1.51657 5.81555 1.35315 5.33909 1.36007H3.33909C3.05178 1.35738 2.76726 1.41662 2.5049 1.53376C2.24254 1.65091 2.0085 1.82321 1.81871 2.03893C1.62892 2.25465 1.48785 2.50874 1.40508 2.78388C1.32232 3.05903 1.29981 3.34878 1.33909 3.63341C1.69425 6.42633 2.96978 9.02133 4.96419 11.0085C6.95861 12.9957 9.55823 14.2617 12.3524 14.6067H12.6058C13.0974 14.6075 13.572 14.4271 13.9391 14.1001C14.15 13.9114 14.3185 13.6802 14.4334 13.4216C14.5483 13.163 14.6071 12.883 14.6058 12.6001V10.6001C14.5976 10.137 14.429 9.69111 14.1286 9.33852C13.8283 8.98593 13.415 8.74849 12.9591 8.66674V8.66674ZM13.2924 12.6667C13.2923 12.7614 13.272 12.8549 13.2329 12.9412C13.1939 13.0274 13.1369 13.1043 13.0658 13.1667C12.9913 13.2311 12.9042 13.2791 12.81 13.3078C12.7159 13.3365 12.6168 13.3452 12.5191 13.3334C10.0224 13.0133 7.70325 11.8711 5.92757 10.0869C4.15189 8.3028 3.0207 5.9783 2.71242 3.48007C2.70181 3.38242 2.71111 3.28363 2.73976 3.18967C2.7684 3.09571 2.8158 3.00853 2.87909 2.93341C2.94156 2.8623 3.01846 2.8053 3.10468 2.76622C3.19089 2.72714 3.28443 2.70686 3.37909 2.70674H5.37909C5.53412 2.70329 5.68551 2.75399 5.80719 2.85012C5.92887 2.94625 6.01323 3.08179 6.04576 3.23341C6.07242 3.41563 6.10576 3.59563 6.14576 3.77341C6.22277 4.12484 6.32526 4.47019 6.45242 4.80674L5.51909 5.24007C5.43929 5.27669 5.36751 5.32871 5.30786 5.39314C5.24822 5.45757 5.20189 5.53315 5.17154 5.61554C5.14118 5.69792 5.1274 5.7855 5.13099 5.87322C5.13457 5.96095 5.15545 6.0471 5.19242 6.12674C6.15189 8.18191 7.80392 9.83394 9.85909 10.7934C10.0214 10.8601 10.2034 10.8601 10.3658 10.7934C10.4489 10.7637 10.5253 10.7177 10.5905 10.6582C10.6558 10.5987 10.7085 10.5268 10.7458 10.4467L11.1591 9.51341C11.5037 9.63666 11.8555 9.73907 12.2124 9.82007C12.3902 9.86007 12.5702 9.89341 12.7524 9.92007C12.904 9.9526 13.0396 10.037 13.1357 10.1586C13.2318 10.2803 13.2825 10.4317 13.2791 10.5867L13.2924 12.6667Z" fill="#111212"/>
</svg>
