<svg width="16" height="13" viewBox="0 0 16 13" fill="none" xmlns="http://www.w3.org/2000/svg">
<path fill-rule="evenodd" clip-rule="evenodd" d="M16 1.53897C15.4121 1.8 14.7791 1.97653 14.1152 2.0554C14.7932 1.64977 15.3135 1.00657 15.5586 0.240376C14.9238 0.615962 14.2222 0.889202 13.4728 1.03568C12.8755 0.398122 12.0218 0 11.0771 0C9.26548 0 7.79574 1.46948 7.79574 3.28169C7.79574 3.53897 7.82391 3.78873 7.88026 4.02911C5.15208 3.89202 2.73381 2.58685 1.11381 0.599061C0.831132 1.08545 0.669601 1.64977 0.669601 2.2507C0.669601 3.38873 1.24905 4.39343 2.12995 4.98216C1.59277 4.9662 1.08564 4.8169 0.642367 4.57277V4.61315C0.642367 6.20376 1.77402 7.53052 3.27663 7.83099C3.00147 7.90798 2.71128 7.94648 2.41169 7.94648C2.20039 7.94648 1.99378 7.92676 1.79374 7.88826C2.21166 9.19155 3.42314 10.1408 4.86001 10.1662C3.73681 11.0469 2.3206 11.5718 0.783237 11.5718C0.518401 11.5718 0.256383 11.5568 0 11.5268C1.45284 12.4563 3.17896 13 5.03187 13C11.0705 13 14.3715 8 14.3715 3.66291C14.3715 3.52019 14.3687 3.37746 14.3631 3.23756C15.0045 2.77465 15.5614 2.19718 16 1.53897Z" fill="#111212"/>
</svg>
